<svg width="56" height="56" viewBox="0 0 56 56" fill="none" xmlns="http://www.w3.org/2000/svg"><path fill-rule="evenodd" clip-rule="evenodd" d="M48.0361 2.41448C50.3546 4.23547 51.8751 6.88989 52.2806 9.814L52.3049 10.001L55.9143 39.5559C56.6696 45.7346 52.3495 51.3643 46.2378 52.2204L46.052 52.2449L16.3228 55.9151C13.3402 56.2832 10.3343 55.4452 7.96654 53.5855C5.6481 51.7646 4.12754 49.1101 3.7221 46.186L3.69773 45.999L0.0845154 16.4441C-0.281775 13.4465 0.551988 10.4253 2.40232 8.04556C4.21411 5.7154 6.85518 4.18712 9.76458 3.77961L9.95064 3.75512L39.6798 0.084941C42.6625 -0.283199 45.6684 0.554794 48.0361 2.41448ZM38.2885 18.6446L38.0945 18.6447C37.4772 18.6362 36.8611 18.7011 36.259 18.8381C35.769 18.9558 35.292 19.123 34.8353 19.337C34.462 19.5179 34.1097 19.7397 33.7848 19.9983C33.5864 20.1562 33.3985 20.3268 33.2222 20.5091L33.0922 20.648V19.8746C33.0844 19.4067 32.7269 19.0243 32.27 18.9811L32.2071 18.9773H29.6906C29.2214 18.9852 28.8392 19.3501 28.8009 19.8136L28.7979 19.8746V41.6945C28.8058 42.1661 29.1688 42.5503 29.6299 42.5887L29.6906 42.5918H32.1994C32.6686 42.5839 33.0509 42.219 33.0891 41.7555L33.0922 41.6945V34.6094C33.3096 34.8428 33.5436 35.06 33.7925 35.2592C34.1148 35.5132 34.4646 35.7299 34.8353 35.905C35.2906 36.1224 35.7679 36.2897 36.259 36.4039C36.8605 36.5455 37.4768 36.613 38.0945 36.605C39.1289 36.6239 40.1541 36.4057 41.092 35.9669C41.9624 35.5486 42.7388 34.9565 43.3739 34.2266C44.0118 33.4892 44.5159 32.6448 44.863 31.7321C45.2281 30.792 45.4349 29.7973 45.4748 28.789C45.4979 28.4564 45.5095 28.0619 45.5095 27.621C45.5095 27.1801 45.4979 26.7934 45.4748 26.4608C45.4349 25.4524 45.2281 24.4578 44.863 23.5177C44.5159 22.6049 44.0118 21.7605 43.3739 21.0232C42.7387 20.2963 41.9622 19.708 41.092 19.2944C40.2721 18.907 39.3847 18.6885 38.4821 18.6501L38.2885 18.6446ZM15.6764 19.337C14.6952 19.7932 13.8207 20.4521 13.1098 21.2707C12.3884 22.1073 11.838 23.0784 11.4898 24.1287C11.1085 25.2581 10.9186 26.4439 10.928 27.6365C10.9118 28.8726 11.1017 30.1027 11.4898 31.2757C11.8358 32.3235 12.3866 33.2912 13.1098 34.1221C13.8191 34.9202 14.6957 35.5503 15.6764 35.9669C16.7458 36.4099 17.8945 36.6271 19.051 36.605C20.1577 36.6252 21.2597 36.4565 22.3102 36.1061C23.1526 35.8236 23.9497 35.4197 24.6767 34.9072C25.2387 34.5218 25.7263 34.0369 26.1159 33.4763C26.3792 33.1249 26.5547 32.715 26.6276 32.2812C26.6518 32.0423 26.5602 31.8063 26.3814 31.647C26.2252 31.4953 26.0219 31.4038 25.8069 31.3869L25.7349 31.384H23.0875C22.869 31.3728 22.6506 31.4057 22.4449 31.4807C22.234 31.582 22.0341 31.7052 21.8485 31.8481C21.5178 32.092 21.1482 32.2777 20.7557 32.3973C20.1966 32.5567 19.6166 32.6297 19.0356 32.6138C18.554 32.6151 18.0746 32.5474 17.6119 32.4127C17.1703 32.2915 16.7553 32.0882 16.3883 31.8133C16.0386 31.554 15.7507 31.2198 15.5456 30.8348C15.3481 30.4568 15.2404 30.0386 15.2302 29.613L15.23 29.4851H26.2813C26.5187 29.4885 26.747 29.3934 26.9124 29.2221C27.0644 29.0716 27.156 28.8713 27.1717 28.659L27.1742 28.5879V27.1144C27.1784 26.0079 26.9828 24.9098 26.5968 23.8735C26.2339 22.871 25.6767 21.9509 24.9576 21.1663C24.2352 20.3887 23.3634 19.7664 22.3949 19.337C21.3372 18.8673 20.1919 18.6299 19.0356 18.6408C17.8788 18.6243 16.7324 18.8619 15.6764 19.337ZM36.9721 22.6412L37.1017 22.6436C38.1016 22.6139 39.0781 22.9506 39.8491 23.5911C40.6008 24.2177 41.042 25.249 41.1728 26.6851C41.236 27.3063 41.2334 27.9324 41.1651 28.553C41.0343 29.9814 40.5931 31.0127 39.8414 31.647C39.0695 32.2859 38.0936 32.6225 37.094 32.5945C36.0914 32.6234 35.1155 32.2665 34.3658 31.5967C33.6094 30.8934 33.153 29.9233 33.0922 28.8895C33.0425 28.4699 33.0206 28.0474 33.0268 27.6249C33.0206 27.2023 33.0425 26.7798 33.0922 26.3602C33.1338 25.3021 33.5953 24.3049 34.3735 23.5911C35.0687 23.0029 35.9395 22.6703 36.8429 22.643L36.9721 22.6412ZM20.7788 22.9182C21.1883 23.081 21.5584 23.3303 21.8639 23.6492C22.1292 23.936 22.3312 24.2761 22.4565 24.647C22.5481 24.9196 22.6192 25.1987 22.6692 25.4819L22.7027 25.695H15.2262C15.2791 25.3319 15.3854 24.9787 15.5417 24.647C15.7139 24.273 15.954 23.9346 16.2497 23.6492C16.5865 23.3362 16.9779 23.0884 17.4041 22.9182C17.9267 22.7167 18.4838 22.6207 19.0433 22.6359C19.6346 22.6157 20.224 22.7116 20.7788 22.9182Z" fill="#182552"/></svg>