<svg fill="none" height="57" viewBox="0 0 56 57" width="56" xmlns="http://www.w3.org/2000/svg"><path d="m25.762.0656875c3.2659-.1972515 6.5821.0304474 9.7342.9465425 6.4868 1.76202 12.2614 5.99565 15.9192 11.63257 2.6437 4.0072 4.2363 8.7108 4.5209 13.5057.3125 4.5805-.5295 9.2364-2.4239 13.4184-1.8865 4.1264-4.7685 7.7974-8.3667 10.5655-3.8127 2.9773-8.4223 4.9366-13.2186 5.5813-5.5085.8089-11.2579-.1032-16.2528-2.5629-4.8346-2.367-8.96369-6.1598-11.71993-10.7853-2.40277-3.9967-3.779568-8.6089-3.9278384-13.2714-.2157866-4.8572.8896214-9.762 3.1361784-14.0724 3.11897-5.97976 8.46199-10.7641 14.76749-13.16686 2.506-.974347 5.155-1.558158 7.8318-1.7911525zm-10.2889 16.4301125c.3786.7877.9413 1.4628 1.4999 2.1261.6911.8088 1.4549 1.5555 2.3035 2.1989 3.1309 2.5272 7.1805 3.7981 11.1851 3.7702 3.8657-.0225 7.7313.0358 11.5956-.0264-.0106-2.6861-.008-5.3708-.0014-8.0556-.2449-.0172-.4884-.037-.732-.0503-8.3429-.0013-16.6857.0027-25.0286-.0026-.2753.0066-.5481.0225-.8221.0397zm4.8228 15.4041c-2.3816 2.4041-4.0828 5.5191-4.6904 8.8552 2.1261.0768 4.2561.0106 6.3836.0317.6963-.0158 1.3993.0609 2.0903-.0489.3627-.3376.4912-.8486.752-1.2603 1.5012-2.514 4.2786-4.2522 7.2189-4.3766 1.6826-.057 3.3678.037 5.0517-.0397.0358-2.7496.0252-5.5006.004-8.2502-1.5952-.0622-3.1931-.0132-4.7896-.0265-4.4746.0331-8.8764 1.9434-12.0205 5.1153z" fill="#49b269"/></svg>