<svg fill="none" height="56" viewBox="0 0 56 56" width="56" xmlns="http://www.w3.org/2000/svg"><g fill="#e21d39"><path d="m26.2408.0306918c1.1756-.03999116 2.3526-.0413702 3.5282-.001379.4999.0910142 1.0135.0537813 1.5155.1434172.322.063434.6543.057918.9749.135142.4489.050334.8867.171686 1.3377.206851l-.0076.04137c.1979.016548.393.056539.5861.104805.1124.031717.2275.05516.3433.077913.0821.017928.1648.035854.249.052403l-.0049.050333c.1145.003448.2296.007585.3455.011033l-.0014.060676c.04.003447.1213.009653.1613.0131.0966.02827.1938.053782.2924.078604.0676.02275.1351.04482.2041.06619.1131.03379.2275.06619.3406.10274.1186.03172.2365.0655.3558.09929.233.08549.4688.16479.7115.22064l.0035.02965c.1924.05585.3827.12204.5688.19788.1069.03862.2138.07792.3213.11515.22.09033.4406.17858.662.26822.1234.05102.2489.09997.3751.14479l.0096.02482c.122.04689.2434.09654.3641.14963.1275.0586.2558.11583.3854.1703l.011.0531c.0228-.00207.0683-.00552.091-.00759.342.18341.6985.33924 1.035.53299.0358.01379.1076.04206.1427.05585.0331.02689.0979.08067.131.10756.0248-.00483.0745-.01448.0993-.01931l.0117.06068c.7833.41163 1.5418.87498 2.2685 1.3797.0255.01103.0765.03309.102.04481.0917.07102.1855.14135.2793.21168.1662.11032.3282.22547.4882.34544 1.2638.92256 2.4532 1.94716 3.544 3.06967.2537.25305.5082.50747.7316.78879.3999.40681.7412.86537 1.1232 1.28797l.0158.0586c.2676.2896.4903.6164.7226.9336.1889.2482.3593.5096.5406.7626.3627.5516.7405 1.097 1.0405 1.6858.0234.0028.0696.0076.0924.0104.002.0503.0068.1517.0096.2027l.0952-.0021c-.0125.0331-.0359.0993-.0476.1331l.1027-.0083-.0289.0931c.0165-.0021.0489-.0069.0655-.009.0565.138.1172.2745.1758.4124.0179.0014.0538.0034.0717.0048l-.0366.1248.1007.0083c-.0076.0338-.0234.1006-.031.1344l.1048-.0014c-.0076.0352-.0241.1049-.0317.14l.0972-.0021c-.0069.0338-.0207.1028-.0276.1366l.1034.0027c-.0096.0338-.0296.1021-.0393.1359l.078-.0076c.031.0958.0648.1917.0965.2889l.0441-.0145c.029.0979.06.1951.089.2937l.0724-.0048c-.0083.0324-.0256.0979-.0338.1303.0275.0055.0827.0159.1103.0207l-.0607.1165c.029.0028.0869.009.1165.0124-.0075.0324-.0213.0979-.0282.1304l.091.0151c-.0069.0338-.02.1-.0269.1338l.0889-.0104c-.0007.0538-.002.1621-.002.2165l.091-.0075c-.0097.0331-.0297.0986-.04.1317l.1041.0069c-.0096.0351-.029.1054-.0393.1406l.0634-.0007c.0297.0862.0614.1731.0945.2586l-.0262.08c.0186.0007.0545.0013.0731.0013.0283.0869.0586.1731.0924.2586l-.0242.0841c.0249.0007.0745.0021.1.0028-.0027.0524-.0069.1572-.0096.2096.0248.0028.0737.0083.0986.011l-.0586.1186c.0186.0021.0565.0062.0751.0076.0579.2103.1324.4165.1889.6275l.0338-.0145c.0269.122.0593.2434.0876.3654l.0641-.0096c-.0027.0524-.0083.1572-.0103.2096l.0724-.0021c.0007.0421.0027.1262.0034.1675.0414.1138.0807.229.1221.3434.0544.2055.1172.4089.1765.6137.0262.0931.0482.1861.0731.2806.0213.0827.04.1662.0593.2503l.0482-.0055c-.0014.0972-.0013.1944-.0013.2923l.0703-.0227c.002.1186.0041.2372.0076.3558l.0489-.0069c.0455.4475.2234.8722.2358 1.3238l.0531-.0207c.0028.1421.0069.2841.0111.4275l.0586-.0124c.0013.1441.0048.2882.0075.4323l.0614-.0227c.0028.1668.0069.3337.0104.5012l.0482-.0131c.0083.3193.0986.6296.0917.9502.049.2144.06.4344.0538.6536l.0593.0021c.009.8274.0283 1.6548.0117 2.4822l-.0482-.0262c-.0297.1703-.0704.3385-.0993.5089l-.0759-.0138c.0097.0338.0297.1013.0393.1351l-.0558.0097c-.0428.0799-.0835.162-.1248.2434-.1655.2468-.3855.4488-.6233.6246-.1228.0704-.251.1304-.3806.1848l-.0069.0262c-.1324.0269-.2634.0607-.3931.0959-.1751.0524-.3571.0641-.5385.062-16.3805.0042-32.7617-.0048-49.14291.0042-.03171.5109.07654 1.0108.09654 1.5183l.05584-.0145c.00138.1213.00138.242.00276.364l.05792-.0255c.00414.2634.05999.522.09653.7819l.04137-.0248c.01172.3365.11239.6605.1641.9915l.05241-.0221c.00206.1207.00344.2407.00551.362l.04689-.0158c.03861.1868.08757.3723.10756.5633l.07309-.0014c-.01172.0331-.03448.0993-.0462.1324l.09446-.0083v.2965l.09378-.0083c-.01448.0338-.04206.1007-.05585.1345l.09722-.011c0 .0986-.00069.1971-.00069.2964l.07308-.0151c.00138.0696.00207.1392.00345.2089l.04068-.0028c.04413.1565.10412.3082.16272.4606-.00482.0228-.01516.0683-.02068.0917.01724.0014.05033.0042.06757.0062.05792.1855.1248.3696.18134.5565.01724.002.0524.0055.06964.0069l-.04758.1206.07378-.0048c.03103.1172.06757.233.10136.3503.0193.0027.05792.0082.07722.0117-.01241.0317-.03861.0951-.05102.1268l.07515.0063c.02552.0723.05172.1447.0793.2178.04206.1076.0786.2172.11445.3282.02276 0 .06827.0014.09102.0014.0062.049.01862.1455.02482.1945.05378.0958.10343.1951.15169.2958l.05516.0041c-.0062.0324-.0193.0979-.02551.1303l.09446.0055c-.00758.0331-.02344.0993-.03171.1324h.05791c.03931.0848.08136.1696.12411.2544.04827.0904.10067.1807.14342.2758.05654.0924.11929.1807.18065.271-.00758.0235-.02344.0697-.03103.0924l.08481-.0041c.02896.0765.05792.1544.08619.2316l.02551-.0082c.05309.0917.10687.1848.16341.2758.00345.0331.01104.0999.01517.1337l.07792-.02-.02.091.10205.0007-.05034.1228c.02689-.0014.07999-.0049.10688-.0062l-.03172.0889.05585.0007c.04275.0814.08688.162.131.2434.0462.0655.09171.1324.1386.1986.04619.0682.09239.1372.13859.2061.10825.1634.22202.3234.33785.482.57298.7984 1.17905 1.5769 1.86165 2.285.5792.6833 1.2563 1.2721 1.9134 1.8775 1.2363 1.0536 2.5601 2.0141 3.9888 2.7898l.0082.0227c.7481.4034 1.5121.7771 2.2926 1.1149.1634.0628.3255.1297.4861.2007.2262.0951.4579.1758.6888.2579.1166.0455.2345.0861.3538.1241.1613.0544.3233.1062.4826.1668.0945.0248.1889.051.2841.0793.0124.0055.0379.0159.051.0207.1841.0545.3703.1055.5523.1682.2565.058.5089.1304.7667.1855.1814.0545.3689.0883.5544.131.1565.0517.3206.0697.4854.0717.0889.0352.1786.0717.2675.1097.2379.0034.4778.0165.7047.0958.2234.0517.453.051.6812.0634.2041.0566.4158.0717.624.1069.2758.0076.553.011.8288.029.1338.0296.2689.0565.4075.0579.7936.0117 1.5879.0103 2.3822-.0104l-.0269-.0572c.2924-.0048.5847-.0103.8771-.0214.1717-.0337.3468-.0462.5213-.0551l-.0014-.0531c.1965-.0062.393-.0131.5902-.0179.0931-.0269.1868-.0511.2813-.0745.2772-.0676.5744-.0283.8357-.162.131-.0145.2634-.0255.3951-.0373.2241-.0855.4626-.1151.6936-.1758.1393-.0338.2793-.0669.4192-.1007.1379-.0434.2779-.0793.4172-.1172.0124-.0027.0372-.0096.0496-.0131.1427-.0441.2862-.0841.4296-.1268.0145-.0035.042-.0118.0558-.0159.1152-.0379.2317-.0745.3469-.1131.2344-.0724.4654-.1544.6977-.2317.2027-.0786.4068-.1544.6116-.2275.2076-.0882.4158-.1758.6268-.2558.213-.0917.4247-.1862.6323-.2896 1.2907-.5723 2.5125-1.2935 3.675-2.0933.826-.5964 1.6472-1.2087 2.3884-1.9093.322-.2502.602-.5495.8916-.8363.2323-.2358.4771-.4606.6771-.7261.162-.1792.3295-.3537.4937-.5309.0475-.0614.0965-.122.1447-.182.1152-.1503.2359-.2951.3669-.431.002-.0999.0041-.1992.0048-.2978-.0269.0007-.0821.0021-.1096.0027-.1435-.1337-.2889-.2654-.4427-.3868-.0021-.0241-.0055-.0737-.0069-.0986-.0248 0-.0752-.0007-.1-.0013-.1599-.2062-.3309-.4034-.5047-.5978.0014-.0249.0041-.0759.0055-.1007l-.0875.0103c-.0007-.0234-.0035-.0703-.0042-.0937-.0931-.1104-.1579-.24-.2179-.3696-.0517-.1214-.0993-.2455-.1434-.3682l-.0289.0014c-.0331-.1421-.0711-.2827-.1-.4255l-.0524.0069c.002-.0524.0069-.1572.0096-.2096l-.0689-.0027c-.0021-.1621-.0055-.3234-.0069-.4848l-.0159-.0179c-.0986-.1923-.1896-.3971-.0586-.5985l.0697.0304c-.0007-.2358.0075-.471.0124-.7061l.0606.0021c0-.0524-.0013-.1565-.002-.2082l.0558.0027c.0235-.1393.0559-.2779.0855-.4158.0097-.0006.0283-.002.0379-.0027.0524-.1655.118-.3255.1828-.4861.0179-.0021.0544-.0048.0731-.0069l-.0442-.1241.0821.0048c.0331-.0972.0682-.1944.1013-.291.018-.0006.0545-.0006.0724-.0006.0842-.1393.1745-.2745.2648-.4089.5406-.6185 1.2535-1.0694 2.0237-1.3446.1027-.0199.2048-.0337.3096-.0489l-.0062-.0462c.7915-.1179 1.6231-.1441 2.3891.122.0228-.002.0669-.0055.0896-.0069l.0042.0855c.0531-.0007.1599-.002.2137-.0027l.0007.0765c.0235-.0027.0703-.0083.0931-.011.8177.3896 1.5397 1.0087 1.9913 1.7989l.0503-.0055c0 .0538-.0007.1613-.0007.2151.031-.0021.0924-.0069.1234-.0096.0049.0923.0097.1854.0159.2792.0234.0007.071.0021.0945.0021l-.0449.1241c.0187.0014.0566.0048.0752.0062.0338.1372.0724.273.1034.4116l.0283-.0014c.0159.1317.0441.262.0793.391.0021.0441.0055.1317.0076.1751l.0579-.0138c.0027.5123.0324 1.0281-.0765 1.5328l-.0524-.0159c-.0014.1193-.0028.2386-.0035.3593l-.0552-.0159c-.0303.1207-.0634.2413-.0923.3641l-.0759-.0028c.011.0331.0324.0986.0434.131l-.0944-.0014c.0007.0545.0021.1628.0027.2172l-.0958-.0089c.011.0338.0324.1006.0428.1344l-.1049.0048c.0104.0331.0325.1.0435.1338l-.1103.0083.0275.1255c-.0262.0034-.0779.0089-.1041.0117.0117.0317.0352.0958.0476.1276l-.0717-.0049c-.2275.3868-.4613.7702-.6743 1.1653-.0062.0055-.0187.0158-.0249.0214-.1034.162-.2082.324-.3089.4888l-.0137-.0007c-.1628.2862-.3538.5537-.5358.8274l-.0607-.0055c.0049.0255.0138.0766.018.1021-.1269.1317-.2441.2751-.3234.4412-.0131.0042-.0393.0111-.0524.0145-.2572.4096-.5682.7799-.8702 1.1556-.2854.3158-.5261.6702-.8281.9709-.1482.1496-.2951.3006-.4316.4605-.0538.0614-.1055.1248-.1579.1869-.4178.3923-.7667.8515-1.2045 1.2225-.3365.3337-.7027.6343-1.0584.9474-.2434.1958-.4806.3985-.7302.5867l-.0076.0207c-.2482.1827-.4992.362-.7336.562-.0214.002-.0649.0075-.0862.0103l-.009.0779c-.0221.0014-.0655.0055-.0876.0076-.0979.0855-.1978.1689-.2964.2544-.0235-.0007-.0704-.002-.0938-.002l-.0028.0841c-.0213.0027-.0641.0096-.0862.0131-.1282.1006-.2627.1944-.4033.2778-.0435.0352-.0869.0704-.129.1069l-.062.0166c-.1827.1268-.3703.2461-.5599.3626-.1482.0945-.2985.1862-.4516.2724-.091.0538-.182.1082-.2724.1627-.1613.0897-.3213.1821-.4812.2744-.1145.0593-.2283.12-.3427.1793-.4144.2241-.8302.4496-1.2673.6275-.0042.0103-.0131.0303-.018.04-.0806.0262-.1585.0565-.2385.0841-.1848.091-.3724.1758-.5571.2654-.0214-.002-.0642-.0048-.0849-.0069l-.0131.0476c-.1268.0497-.2516.1041-.375.1593-.0193.0014-.0566.0027-.0752.0034-.0896.0476-.1786.0952-.2668.1441-.0255-.0041-.0766-.0131-.1021-.0179l-.0062.0593c-.1799.0483-.3544.1117-.5295.1738-.0855.0386-.171.0779-.2558.1179-.0345.0048-.1028.0131-.1372.0172-.0924.0386-.1855.0759-.2772.1138-.071.02-.1407.0427-.2103.0662-.091.0289-.1814.0593-.271.091-.0269-.0021-.0793-.0076-.1055-.0097v.0559c-.1317.0289-.2613.0655-.3916.1013-.0883.0262-.1772.0531-.2655.08-.2034.0607-.4096.1117-.613.1717-.0358.0097-.1061.0297-.1413.0393-.1034.0214-.2082.0386-.3117.0565-.0006.0097-.0027.0304-.0041.04-.1269.0152-.253.0318-.3778.0559-.0904.0255-.1807.051-.2696.08-.1386.0172-.2765.0407-.4117.0738-.1958.0517-.3957.0861-.5985.0917l.0049.0413c-.129.0159-.2579.0352-.3848.0621-.1482.0131-.2965.0241-.4447.0338v.0482c-.3792.0317-.7619.0573-1.1342.1379-.2062.0124-.4131.0186-.6185.0338-.362.0765-.7378.0179-1.0991.1028-.7846.0193-1.5693.0124-2.354.0089-.4419.0124-.877-.082-1.319-.082-.2482-.0524-.5026-.0504-.7543-.0621-.3406-.0814-.6923-.091-1.037-.1406-.1779-.0462-.3599-.0676-.542-.0869-.1261-.0235-.2544-.04-.3812-.0538 0-.0117 0-.0352.0006-.0469-.1241-.0076-.2475-.0131-.3709-.02-.1207-.0365-.242-.0682-.3627-.1027-.1848-.0242-.3654-.0662-.5454-.1083-.1372-.0345-.2744-.0634-.4102-.0993-.2338-.0551-.4634-.1255-.6971-.1785-.2089-.06-.4172-.1193-.624-.1835-.0138-.002-.0414-.0068-.0552-.0089-.0924-.031-.1855-.06-.2779-.0876-.1379-.0489-.2778-.0924-.4171-.1344-.1469-.0504-.2958-.0945-.4447-.1366l-.0014-.0331c-.109-.0275-.2179-.0586-.3255-.0882-.1096-.0476-.2199-.0917-.3282-.1386-.0172-.0007-.051-.0007-.0682-.0007-.0897-.0469-.1807-.0924-.2696-.1379-.0186-.0014-.0559-.0034-.0752-.0048-.0593-.0214-.1786-.0641-.2379-.0855l-.002-.0586c-.0262.0014-.0786.0055-.1041.0069-.1228-.0573-.2476-.109-.3724-.1586l-.0207-.049c-.0213.0021-.0648.0049-.0861.0062-.1683-.0848-.3407-.162-.5172-.2289l-.0124-.0282c-.533-.211-1.0356-.491-1.5458-.7502-1.0619-.5737-2.0948-1.2032-3.0739-1.9093-.8363-.5909-1.6306-1.2383-2.4008-1.9126-.60401-.5716-1.2418-1.1122-1.7803-1.7486-.20202-.2262-.41991-.4372-.61779-.6661-.24547-.2951-.50334-.5799-.7357-.886l-.02138-.0096c-.06619-.0904-.13376-.1793-.20064-.2683-.09446-.122-.19306-.2399-.29511-.3557l-.02137-.0573c-.12825-.1531-.24547-.3151-.35648-.4799l-.02206-.0117c-.03861-.0614-.07723-.122-.11653-.182-.05792-.0697-.11583-.1386-.17513-.2062.00138-.022.00345-.0676.00414-.0896l-.0924-.0014c.00069-.0221.00207-.0662.00345-.0883-.08343-.0655-.13376-.1565-.16617-.2544-.02206-.0007-.06619-.0014-.08757-.0021-.00551-.0517-.01586-.1558-.02137-.2082-.02276-.0007-.06895-.0027-.0924-.0034-.0655-.1345-.13583-.2655-.20271-.3986l-.05585-.0069c.00069-.022.00069-.0661.00138-.0882-.05861-.071-.11515-.1448-.171-.2172-.04068-.071-.08067-.1427-.11997-.2131-.11653-.193-.23029-.3882-.33648-.5867-.00689-.0035-.02068-.0104-.02758-.0145-.05516-.1138-.1117-.2255-.16755-.3379-.01999-.0007-.05929-.002-.0786-.002l.04689-.1193c-.02758-.0048-.08274-.0145-.11033-.0193l.02759-.1248-.09516-.0083c.00759-.0331.02207-.0993.02965-.1324l-.0655.0048c-.0593-.1413-.12273-.282-.18203-.4233l-.06412.0041c.00758-.0338.02275-.102.03033-.1358l-.09859.0021c.00758-.0345.02275-.1042.03033-.1386l-.10204-.0035c.00827-.0338.02551-.1013.03447-.1351l-.09998-.0021c.00759-.0338.02345-.1007.03103-.1344l-.10273-.0049c.00896-.0324.02689-.0972.03585-.1296-.02758-.0048-.08205-.0152-.10894-.02l.05033-.1144c-.01999-.0028-.05929-.0076-.07929-.0104-.02896-.0979-.06068-.193-.09101-.2896l-.06482.0173c.00069-.0545.00138-.1621.00207-.2165l-.09515.0041c.01103-.0331.03379-.0986.04482-.1317l-.09033.0007c0-.029-.00069-.0869-.00138-.1158-.06136-.12-.11376-.2434-.1572-.3703-.01655-.0014-.04965-.0055-.0662-.0076.01104-.0324.0331-.0972.04413-.1303l-.0917-.0028c-.00069-.0538-.00069-.1606-.00069-.2137l-.09515.0089c.01241-.0337.03654-.102.04895-.1365l-.09101-.0034c0-.0531 0-.1593 0-.2124l-.07585.0152c.00138-.0545.00483-.1641.00621-.2193l-.09791.0028c.0131-.0331.03999-.0993.05309-.1324-.01862 0-.05585-.0007-.07378-.0014-.03309-.142-.07239-.2813-.10618-.4227l-.0393.0104c-.03448-.1407-.07309-.2799-.10343-.4213l-.05309.0055c.00138-.0538.00483-.1599.00621-.2137l-.07585.0138c.00276-.0566.00828-.1697.01103-.2262l-.0786.0179c.00207-.0551.00621-.1648.00827-.2192l-.05102.0131c-.03034-.1786-.08274-.351-.14135-.5213-.03861-.151-.07929-.302-.108249-.4544l-.029649.0035c-.035854-.1869-.083429-.371-.105493-.5599l-.032407.0138c-.018617-.1069-.036544-.2131-.061366-.3172-.086188-.4261-.22202-.8439-.248911-1.2797l-.036543.0076c-.022064-.2813-.099289-.5551-.099289-.8378l-.052402.0131c-.000689-.1441-.003447-.2882-.004137-.4323l-.062745.0221c-.002068-.1924-.007584-.3841-.007584-.5758l-.058608.0221c-.002758-.2358-.012411-.4716-.015169-.7074l-.0565393.0214c.0062055-.3827-.0048264-.7654-.0648132-1.1432-.01447953-.613-.0344752-1.2274-.002758-1.8396l.0592973.0158c.002758-.1413.008274-.2827.012411-.4233l.0737772.011c.001379-.0234.003447-.071.004826-.0945.028959-.0834.05516-.1668.082051-.2502.017927-.0028.053781-.009.071708-.0118.132385-.3116.410255-.5185.653649-.7377.095843-.049.190993-.1.285453-.1497.15031-.0572.30062-.1137.45094-.1703.24546-.042.49437-.0379.74259-.0365 15.40009-.0007 30.80079.0007 46.20079-.0007.9564-.0062 1.9127.0069 2.8691-.0076-.0042-.1875-.009-.3751-.0117-.5619l-.0642.0262c-.0014-.2248.0049-.4517-.0351-.6737-.0924-.2785-.1193-.5709-.1124-.8625l-.049.0165c-.02-.1241-.0455-.2475-.0696-.3709-.0083-.0759-.0166-.1511-.0242-.2262-.0503-.1572-.0882-.3172-.1248-.4765 0-.0455.0007-.1365.0007-.1827-.0193.0035-.0572.009-.0765.0124-.0007-.1192 0-.2385.0014-.3578l-.0669.0131c0-.0517.0007-.1558.0007-.2082l-.0745-.0007c.0028-.0945.0055-.1896.009-.2841-.0193.0014-.0572.0041-.0765.0055.0013-.0503.0034-.1517.0048-.202l-.0724-.0021c.002-.0938.0048-.1868.0076-.2799-.018.0007-.0538.0014-.0724.002-.0311-.1399-.0607-.2799-.0821-.4219l-.0407.0131c-.0241-.0959-.0496-.191-.0758-.2855-.0421-.1158-.0786-.2344-.1007-.3558l-.071.0062.0579-.1275-.0807.0055c-.0206-.1572-.0806-.3041-.1523-.4434.0013-.031.0034-.0944.0048-.1261-.0241-.0007-.0724-.0014-.0965-.0021l.0441-.1248-.0938-.0041c.0028-.0538.0083-.1614.011-.2152l-.0723.009c-.0083-.0503-.0249-.1503-.0331-.2006-.0642-.1076-.1152-.2234-.1469-.3441-.0103.0007-.0297.0021-.04.0028-.0338-.118-.0648-.2359-.0917-.3545-.0262 0-.0786 0-.1048.0007-.0007-.0558-.0014-.1668-.0021-.222l-.091.0097.0352-.1228c-.0248-.0048-.0738-.0131-.0979-.0179.0089-.0338.0262-.102.0351-.1358l-.1048.0007.0262-.1269c-.0248-.0048-.0744-.0138-.0993-.0186l.0455-.1165c-.0206-.0021-.0613-.0062-.082-.0083-.0303-.0965-.0621-.1917-.091-.2875l-.0421.0089c-.0558-.1372-.1151-.273-.1717-.4089-.0117-.0006-.0337-.0013-.0455-.002-.0296-.0772-.0586-.1538-.0875-.231l-.0304.0131c-.08-.1834-.1772-.3592-.2916-.5226-.0069-.0387-.0207-.1159-.0276-.1545-.02-.0014-.0607-.0055-.0807-.0069-.1103-.2082-.2379-.4068-.3496-.6136l-.0558.0034c.0062-.0345.0179-.1041.0241-.1386-.0351-.0034-.1048-.009-.14-.0117.0021-.0331.0056-.0993.0069-.1324l-.0462-.0165c-2.1091-3.1752-5.003-5.82634-8.3471-7.65697-.0682-.04069-.1358-.08137-.2027-.12274-.0248.00345-.0751.00897-.1.01241l.0042-.06136c-.4282-.2034-.8488-.42405-1.2804-.62055-.5937-.25512-1.1839-.51989-1.7969-.72329-.2061-.07861-.4144-.15169-.6261-.21375-.1358-.04895-.2723-.09377-.4116-.13169-.182-.0593-.3661-.10894-.5468-.17031-.1682-.03103-.333-.07585-.4895-.1448-.0896-.00896-.1786-.01654-.2668-.02413-.0897-.03723-.1793-.07309-.2683-.10894-.1427-.01034-.2854-.02827-.4219-.07102-.1931-.05033-.3889-.08274-.5868-.09308-.0007-.01241-.0014-.03792-.0014-.05034-.2392-.00965-.4764-.03999-.7088-.09584-.2723-.0786-.5599-.04068-.8357-.09791-.1158-.02551-.2316-.05309-.3461-.08205-.3903-.02413-.7888.02827-1.1715-.06826-.8108-.0324-1.6231-.03309-2.4332-.00345-.4385.09653-.8902.05379-1.3349.06689l.0007.04412c-.131.01655-.262.03448-.3903.06344-.202.0193-.4054.02413-.6074.03654-.291.10619-.6061.0924-.8991.1841-.0931.01103-.1862.02-.2786.02827-.1158.03516-.231.06895-.3441.11032-.1241.00965-.2482.01793-.3716.02482l-.0007.04896c-.1827.04412-.3675.07791-.5537.09239l-.0027.06137c-.0255 0-.0779-.00069-.1034-.00069-.1104.02964-.2214.05723-.3317.08481-.2827.08756-.5675.1703-.8495.25994-.2351.0786-.4695.16065-.7101.2234l-.0076.05929c-.0214-.00344-.0655-.00965-.0876-.0131-.1875.07378-.3751.14618-.564.21582-.089.03723-.1786.07308-.2669.10963-.3302.12342-.6515.26959-.9694.4206-.0827.02896-.1641.0586-.2461.08825l-.0014.0393c-.0835.03103-.1662.06206-.2489.09378-.5427.26614-1.0695.56056-1.5997.84946l-.0069.02207c-1.3169.7357-2.5167 1.66101-3.6826 2.61319-.2393.2172-.4592.4551-.7061.6633-.1641.1372-.3192.2841-.4695.4351-.0662.071-.1331.142-.1993.2131-.2923.3344-.6026.6529-.9101.9742-.0476.0621-.0959.1248-.14413.1869-.16962.2213-.35096.4323-.53644.6405.0986.0876.19996.1738.30614.2524.31163.2868.66673.555.86603.9384.0165.0007.0489.0028.0655.0035.0648.1358.1324.2709.1951.4088l.0373-.0131c.0324.0959.0661.1917.0979.2882l.0662-.0103-.0435.0965.0883-.0179c-.0014.0531-.0042.1593-.0062.2124h.082c-.002.0531-.0069.1599-.0089.213l.0758-.0131c-.0021.0545-.0069.1641-.009.2186.0187-.0028.0559-.009.0745-.0117.0007.0841.0021.1689.0041.2537.1386.4406.1455.9033.1214 1.3604l-.0848-.0586c.0434.1593.0186.3213-.0338.4751-.0041.082-.0076.1648-.0103.2475-.0118-.0014-.0366-.0035-.049-.0048-.0503.1889-.1131.3737-.1731.5598l-.0675-.0082c.0103.0365.031.1089.0406.1454l-.1082-.0013c.009.0344.0262.102.0352.1358l-.1014.0041.0372.1262c-.0172.0035-.0517.0097-.0689.0124-.069.1462-.1531.2848-.2448.4179l-.0738-.0042c.0097.0318.0297.0959.04.1276l-.0586.0069c-.2592.3378-.57916.6247-.92254.8757-.15031.0992-.30131.1992-.45024.302-.02414-.0042-.0724-.0131-.09653-.0173l-.01241.0917c-.03103-.0048-.0924-.0145-.12274-.0193l-.01103.0607c-.1048.0331-.20892.0689-.31441.102-.08688.0366-.17376.0731-.25994.1104-.15514.0255-.30821.0613-.46197.0917l.00138.0503c-.54816.0172-1.097.02-1.64516-.0034l-.00206-.0435c-.08206-.0227-.16342-.0455-.24478-.0689-.08274-.0069-.16548-.0131-.24822-.0187l.00345-.0468c-.05999-.02-.17996-.06-.23995-.08-.01793-.0021-.05378-.0055-.07171-.0076-.09653-.0503-.19237-.1014-.29028-.1483-.5778-.2585-1.0508-.6922-1.46588-1.1618-.06826-.0834-.12066-.1772-.17514-.2696-.02344-.0027-.0717-.0096-.09584-.0131.00345-.0331.00897-.1006.01241-.1337l-.08274.0041c-.00344-.0414-.00965-.1241-.01241-.1655-.09032-.0572-.13514-.1489-.15858-.2496l-.05723-.002c.00827-.0324.02482-.0973.0331-.1297l-.10481-.0069c.01103-.0331.03241-.0992.04344-.1323-.02689-.0035-.07929-.0097-.10618-.0131.01103-.0324.0324-.098.04343-.131l-.08825.0041c-.00207-.0731-.0069-.2179-.00897-.291l-.09101.0117c.0131-.0337.0393-.1027.05171-.1365l-.07998-.0014c-.00552-.2103-.03034-.4192-.07171-.6247-.04413-.3647-.00965-.7329-.0062-1.099l.06412.0145c.00069-.1407.00414-.282.00552-.422l.06964.0041c-.00276-.0524-.00897-.1579-.01241-.2103l.08067.0062c-.00207-.0551-.00621-.1655-.00828-.2206l.09309.0034c-.01173-.0338-.03586-.102-.04827-.1358l.09377.0028c0-.0531-.00069-.1586-.00069-.2117l.06482.0145c.02965-.0973.06136-.1938.08963-.291.00759-.0007.02345-.0007.03172-.0007.06068-.1344.12549-.2675.18617-.4013.0131-.0027.0393-.0083.0524-.011-.00207-.0324-.00483-.0972-.0069-.129.0262-.002.07792-.0055.10343-.0075.05998-.1379.12549-.2731.18823-.4096l.03379.0007c.05861-.1193.12135-.2365.17927-.3558l.02758.0228c.02275-.0573.06895-.1717.09239-.229.00828 0 .02551.0007.03448.0007.02827-.0965.08136-.1813.15307-.2516.0062-.0393.0193-.1179.0262-.1572.01999-.0007.05999-.0035.07998-.0049.04482-.0813.09033-.162.13859-.2413.18892-.2606.35578-.5351.54195-.7964l.0131-.0034c.12342-.2103.29235-.3889.41508-.5992l.01379-.0076c.39509-.5185.79086-1.0363 1.22042-1.52655l.01724.00414c.08136-.1117.16548-.22202.24753-.33303.50334-.57366 1.08735-1.07286 1.57207-1.66377.17375-.1903.36612-.36199.55987-.5316.77776-.70123 1.58582-1.37005 2.43742-1.98095.1365-.09722.2737-.19375.4137-.28683.091-.06895.1861-.13239.2778-.20065.3207-.21305.6434-.42335.9709-.62538.0931-.05791.1848-.1179.2778-.17582.3848-.2234.7647-.45576 1.1605-.65847.4744-.27925.9811-.49507 1.4652-.75501.0324-.00896.0972-.02827.1296-.03792.2096-.10757.4227-.20685.644-.28821l.009-.02069c.1185-.0462.2365-.09446.3523-.14755.0296-.00621.0896-.01862.1193-.02483.0703-.04068.1399-.08136.211-.12135.0317-.00345.0965-.00965.1289-.0131.0745-.04206.1496-.08343.2255-.12411.0275-.00414.0827-.01103.1103-.01448.2468-.10549.4992-.1972.7529-.28545.3751-.1186.7433-.26132 1.1274-.34958.0013-.00896.0027-.02551.0034-.03448.1027-.01792.2048-.03723.3068-.05791.0697-.02621.14-.0531.2103-.0793.0917-.018614.1841-.03792.2758-.059295.0683-.024822.1366-.050333.2055-.076534.0896-.012411.1793-.025512.2696-.039302.1889-.071709.3875-.117216.5895-.133074l-.0041-.039991c.213-.030339.4247-.071709.6392-.091015l-.0152-.044818c.2682-.020685.5344-.066881.7943-.136521.282-.019996.5613-.06964.8357-.13859.2261-.009653.4544-.017238.6764-.06964.5026-.090325 1.017-.051023 1.5176-.1413482z"/><path d="m25.425 8.86743c.2972-.01103.5964-.01103.8888-.07447.9598-.10825 1.9278-.06826 2.8911-.05654.2179.03586.4385.04551.6584.05516l-.0055.05379c.2407.00275.482.00827.7226.02482.1041.02689.2096.04688.3172.06688l-.0062.04275c.1724.00276.3447.00827.5171.01517.1131.04206.2269.07998.3413.11997.1283.00276.2565.00828.3862.0131.0013.01379.0034.04275.0041.05654.102.0131.2041.02758.3061.04344.0931.02689.1862.05378.2793.08343.1413.02965.282.06343.4226.09929.1283.04275.2593.07998.3903.11928.1434.04344.2868.0855.4303.1317.242.08067.4805.17099.7281.23443l-.0056.0393c.1069.02827.2152.05999.3227.08963.0897.0441.1807.0869.271.131.0159 0 .0469.0014.0628.0021.0882.0427.1778.0862.2675.1296.0724.0276.1448.0552.2179.0834.2509.1214.5019.2421.7543.36.2785.1454.5585.2882.8322.4419.0772.0448.1565.0897.2344.1352.1048.0606.209.122.3138.1827.1813.1165.3647.231.5488.3454.2076.14.4151.282.6219.4241.755.544 1.488 1.1225 2.1451 1.7823.0627.0559.1255.1117.1896.1669.2468.2124.4427.4737.6702.7047.4427.4337.8191.928 1.2011 1.4148.1276.1628.2503.3296.3551.5089.0131.0048.0386.0145.051.0193.0904.1455.1841.2889.28.4316.1151.1717.2254.3468.3316.5247l.0283.0014c.0572.1186.1179.2365.1765.3558l.0262-.0083c.1489.3.3385.5792.4689.8895l.0317-.0111c.0317.0959.0662.191.0979.2876l.0427-.0152c.0311.0972.0642.1938.0959.2917l.0717-.0069c-.009.0344-.0276.1041-.0366.1386.0242.0034.0731.0117.098.0158l-.0283.1207.1007.0041c-.009.0352-.0283.1062-.0373.1421l.0986.0041c-.0069.0331-.02.0986-.0269.1317l.0855-.0062c-.0007.0544-.002.1627-.0034.2172l.0979-.0083c-.0104.0338-.031.102-.0414.1358.0262.0042.08.0131.1062.0173l-.0593.1199c.0228.0014.0669.0049.0896.0062.029.1186.0628.2359.0938.3545l.0628-.0131c-.0014.0537-.0042.1613-.0056.2151l.0676-.0049c0 .0359-.0007.1076-.0007.1442-10.1226-.0069-20.2452-.0014-30.3684-.0035-.3386-.0055-.6813.0255-1.0171-.0358.0676-.0766.1359-.1531.2034-.229.0242-.0986.06-.1944.1372-.2634.0366-.0806.0718-.1613.1062-.2427l.0738.0056c-.011-.0345-.0331-.1028-.0441-.1366l.0944.0076c.0014-.0531.0028-.1586.0035-.2117l.0896-.0006c-.011-.0325-.0324-.098-.0427-.1304.0193 0 .0572-.0007.0758-.0013.0304-.1166.0648-.231.0959-.3469.0158.0007.0482.0021.0648.0028-.0035-.0545-.0104-.1641-.0138-.2193l.0772.018c0-.0524-.0007-.1572-.0007-.2096l.0745-.0007c-.0042-.0538-.0117-.1628-.0152-.2165.0159.0027.0476.0082.0635.011.0137-.1331.0379-.2648.0786-.3916.0696-.1855.0827-.3834.0868-.5792l.0393.0041c.0214-.1282.0476-.2544.0752-.3806.031-.7991.0165-1.5983.0041-2.3967l-.062.0152c.0014-.0979.002-.1959.0034-.2938l-.0655.0097c-.0034-.1627-.0089-.3255-.0124-.4882l-.0669.0145c-.0007-.0455-.0034-.1358-.0048-.1813-.0255-.1042-.051-.2076-.0752-.3117-.0137 0-.0427.0007-.0565.0014-.0007-.0697-.0021-.2089-.0034-.2786l-.0531.0104c-.0276-.1159-.0607-.2303-.089-.3462-.0386-.0606-.0779-.1206-.1179-.1799.1724-.0724.3068-.2041.4468-.3234.6964-.5675 1.4349-1.0811 2.2002-1.5507.182-.1055.3641-.2103.5468-.3144.1813-.1021.3654-.1986.5481-.2979.3413-.1717.6861-.3385 1.0336-.4971.1593-.0683.3186-.1365.4785-.2034.1145-.0462.2289-.0938.3427-.1427.1048-.03175.2089-.06416.3144-.09312l.0048-.03654c.2228-.05378.4372-.13583.6516-.21444.018-.00551.0538-.01586.0717-.02137.0952-.02689.1917-.0524.2882-.07516.0773-.03654.1545-.0724.2317-.10894.0903-.00483.1807-.00965.2717-.01379v-.0593c.1503-.02896.2999-.06205.4509-.09032.4489-.14342.9184-.19927 1.3749-.31166.2599-.01861.5185-.05309.7667-.13583z"/><path d="m9.99194 34.4997c10.42046.0013 20.84096.0034 31.26066-.0014-.0013.051-.0048.1531-.0062.2041l-.102.0076c.0138.0324.0413.0979.0551.131l-.102-.0186.0193.0923c-.0152.0021-.0455.0069-.0607.009-.0565.1338-.1144.2669-.1703.4013-.0096 0-.0289.0007-.0386.0007-.0296.0965-.0621.1931-.0917.291l-.0669-.0166c.0014.0524.0048.1572.0069.2096-.0255.0028-.0772.0076-.1027.0097l.0662.1124c-.018.0034-.0552.0103-.0738.0138-.0359.1275-.0848.253-.1517.3681-.009.0855-.0172.171-.0234.2572l-.0524-.0172c-.0318.1662-.0711.331-.0973.4985-.0089-.0021-.0269-.0076-.0351-.0096-.0214.1903-.0621.3785-.0938.5681l-.0524-.0103c-.0014.2116-.0076.4233-.009.635l-.0593-.0214c-.0034.1324-.0089.2641-.0117.3972-.0827.3433-.0427.6978-.0517 1.048l.0531-.0034c-.011.373.1062.7343.0841 1.1087l.0697-.0035c-.0042.0538-.0131.1614-.0173.2152l.0717-.0097c.0014.1476.0048.2951.0076.4441l.0441-.1193c.0338.1723.0752.3433.1042.5171l.0606-.0103c-.0041.073-.0082.1461-.0117.2199l.0614-.0131c.0407.16.08.3206.1006.4861-1.1914.986-2.4698 1.8734-3.8543 2.567-.1144.0579-.231.111-.3447.169-.0924.0427-.1828.0889-.2738.1344-.1386.0628-.2771.1262-.4164.1869-.1117.0462-.2248.0917-.3372.1358-.1358.0572-.2723.1124-.4068.171-.0952.0324-.1896.0662-.2841.1-.2054.0758-.4109.151-.6198.2158-.1373.0503-.2758.0958-.4144.1413-.0945.0249-.1896.0455-.2841.0655-.091.0304-.18.0635-.2689.0966-.1434.0248-.2841.06-.4227.1034-.1331.0338-.2689.0552-.404.0745-.0917.0344-.1841.0675-.2758.1034-.1283.0041-.2558.0083-.3827.0138l.0021.0572c-.2565.0269-.5103.071-.7674.0841l.0075.0552c-.2192.0103-.4378.02-.6571.0255-.1372.0269-.2751.0476-.4137.0662-.3826.0903-.7791.0462-1.168.0586-.7508-.0097-1.5038.0269-2.2526-.0303-.1655-.0393-.3337-.0635-.4992-.0966-.2337.0021-.4702-.002-.6957-.071-.2551-.0331-.5144-.0552-.7584-.1386-.1159-.011-.2317-.0193-.3469-.0255-.0931-.0365-.1861-.0731-.2778-.1103-.1131-.011-.2255-.0193-.3379-.0297-.1524-.0737-.3151-.122-.4826-.1399-.0904-.0324-.1814-.0642-.271-.0938-.0952-.0248-.1889-.0503-.282-.0786-.1276-.0338-.2538-.0676-.3806-.0979l.0034-.0345c-.151-.0372-.2985-.0814-.4447-.1317-.1234-.0393-.2434-.0869-.3592-.142-.0331-.009-.0986-.0255-.1317-.0338-.1173-.0503-.2352-.0986-.3538-.1448-.1317-.0579-.2633-.1124-.3944-.1689-.0979-.0455-.1944-.0924-.2902-.1393-.0318-.0083-.0959-.0248-.1276-.0331-.0917-.0517-.1834-.1027-.2751-.1517-.1055-.0441-.2103-.0883-.3158-.1296l-.0014-.0276c-2.2126-1.0936-4.1784-2.6567-5.8159-4.4976l-.018-.009c-.3647-.4689-.7639-.9115-1.099-1.4031-.1193-.1586-.2365-.3186-.3413-.4875-.0483-.0662-.0966-.1331-.1448-.1986-.0428-.0834-.0862-.1669-.1276-.2489-.0241-.0021-.071-.0062-.0944-.0083-.0028-.0503-.0083-.1517-.0118-.2027l-.0868.0055c.0006-.022.0027-.0662.0041-.0882-.0669-.069-.1186-.149-.1503-.2386-.0393-.0428-.08-.0848-.1207-.1248l.029-.1034-.1028-.0035c.0069-.0324.02-.0965.0269-.1289l-.1006-.0097c.0089-.0331.0262-.0986.0351-.131l-.0965.0117.0248-.091c-.0241-.0007-.0717-.0007-.0958-.0007.011-.0317.0317-.0951.0427-.1268-.02-.0007-.0593-.0014-.0786-.0014-.0586-.1407-.12-.2799-.1779-.4199l-.0648-.0021.0345-.1227-.1041-.0117c.0103-.0338.0303-.1007.0407-.1338l-.1007-.0048c.0041-.0345.0124-.1041.0165-.1386l-.0965.0048c.0117-.0345.0352-.1034.0469-.1379l-.0724-.0021c-.0241-.0613-.0724-.1834-.0965-.244.0048-.0235.0144-.0704.0193-.0938-.0242 0-.0717 0-.0952 0 .0021-.051.0062-.1524.0083-.2034-.0207-.0007-.0627-.0014-.0834-.0021l.0282-.0875-.0862.0186c.0021-.0552.0056-.1662.0076-.2214l-.0944.0062c.0117-.0331.0351-.0986.0469-.131l-.0966.0021c.0028-.0558.0083-.1675.0117-.2234l-.0792.0145c-.00487-.1158-.00901-.2317-.01246-.3468z"/></g></svg>