<svg fill="none" height="56" viewBox="0 0 56 56" width="56" xmlns="http://www.w3.org/2000/svg" xmlns:xlink="http://www.w3.org/1999/xlink"><linearGradient id="a" gradientUnits="userSpaceOnUse" x1="26.552" x2="26.552" y1="-41.015" y2="61.841"><stop offset="0" stop-color="#17ead9"/><stop offset="1" stop-color="#60a2ea"/></linearGradient><clipPath id="b"><path d="m0 0h56v56h-56z"/></clipPath><g clip-path="url(#b)"><path clip-rule="evenodd" d="m14.0212 0h27.9576c4.8754 0 6.6434.50764 8.4258 1.46088s3.1813 2.35209 4.1345 4.1345c.9533 1.7824 1.4609 3.55037 1.4609 8.42582v27.9576c0 4.8754-.5076 6.6434-1.4609 8.4258-.9532 1.7824-2.3521 3.1813-4.1345 4.1345-1.7824.9533-3.5504 1.4609-8.4258 1.4609h-27.9576c-4.87545 0-6.64342-.5076-8.42582-1.4609-1.78241-.9532-3.18126-2.3521-4.1345-4.1345s-1.46088-3.5504-1.46088-8.4258v-27.9576c0-4.87545.50764-6.64342 1.46088-8.42582.95324-1.78241 2.35209-3.18126 4.1345-4.1345 1.7824-.95324 3.55037-1.46088 8.42582-1.46088z" fill="url(#a)" fill-rule="evenodd"/><path d="m9.49857 35.1664-2.64206 4.1358c-.2195.3436-.676.4442-1.01961.2247-.34362-.2195-.44423-.676-.22472-1.0196l2.54985-3.9916c.41487.2666.8629.486 1.33654.6507zm10.54423-19.249c.9024-1.4126 2.7791-1.8262 4.1918-.9238.35.2236.6503.5166.8825.8609l9.6455 14.3043 3.3606-5.3345c.8936-1.4183 2.7676-1.8437 4.1859-.9502.3649.2299.6766.5349.9144.8947l7.9787 12.0736c.2248.3402.1313.7982-.2089 1.023s-.7982.1313-1.023-.2089l-7.9787-12.0737c-.1221-.1847-.2822-.3413-.4695-.4594-.7283-.4588-1.6907-.2403-2.1495.488l-4.568 7.2508-10.9117-16.1822c-.1193-.1768-.2735-.3273-.4532-.4421-.7254-.4634-1.6892-.251-2.1526.4744l-5.1593 8.0767c-.3448-.3566-.7312-.6727-1.1513-.9406z" fill="#fff"/><g stroke="#fff"><path d="m34.8604 31.3907-3.97 6.4075c-.1909.3081-.5954.4031-.9035.2122-.0752-.0466-.1403-.108-.1912-.1804l-1.6901-2.404c-.2084-.2965-.6178-.3679-.9143-.1594-.0642.0451-.1199.1015-.1642.1663l-1.9498 2.8508" stroke-linecap="round" stroke-width="1.608"/><path d="m23.7081 40.25-.5557.8125" stroke-linecap="round" stroke-width="1.787"/><path d="m11.5783 34.7777c3.0873 0 5.59-2.5027 5.59-5.59s-2.5027-5.59-5.59-5.59c-3.08728 0-5.59002 2.5027-5.59002 5.59s2.50274 5.59 5.59002 5.59z" stroke-width="1.608"/><path d="m9.1875 29.3077 1.5315 1.7084c.1209.1349.3284.1462.4633.0253.0225-.0202.042-.0433.0582-.0688l2.2292-3.5195" stroke-linecap="round" stroke-width="1.608"/></g></g></svg>